# xmcd
#
# Track frame offsets:
#	183
#	11955
#	24715
#	39233
#	51563
#	63823
#	74340
#	87593
#	101543
#	111953
#	123163
#	134480
#	145480
#	156545
#	169158
#	181910
#	197468
#	207545
#	220575
#
# Disc length: 3094 seconds
#
# Revision: 1
# Processed by: cddbd v1.4PL0 Copyright (c) Steve Scherf et al.
# Submitted via: audiograbber 1.80.04
#
DISCID=200c1413
DTITLE=Howlin' Wolf - The Wolf Is At Your Door (Disk 1)
DYEAR=1900
DGENRE=Blues
TTITLE0=Somebody's In My Home
TTITLE1=My Mind is Ramblin'
TTITLE2=I Walked From Dallas
TTITLE3=Streamline Woman
TTITLE4=Cause Of It All
TTITLE5=Do The Do
TTITLE6=Worried About You
TTITLE7=Poor Boy
TTITLE8=Shake For Me
TTITLE9=Red Rooster
TTITLE10=You'll Be Mine
TTITLE11=Who's Been Talkin'
TTITLE12=Wang Dang Doodle
TTITLE13=Little Baby
TTITLE14=Spoonful
TTITLE15=Goin' Down Slow
TTITLE16=Down In The Bottom
TTITLE17=Back Door Man
TTITLE18=Howlin' For My Baby
EXTD=
EXTT0=
EXTT1=
EXTT2=
EXTT3=
EXTT4=
EXTT5=
EXTT6=
EXTT7=
EXTT8=
EXTT9=
EXTT10=
EXTT11=
EXTT12=
EXTT13=
EXTT14=
EXTT15=
EXTT16=
EXTT17=
EXTT18=
PLAYORDER=
